<svg width="19" height="20" viewBox="0 0 19 20" fill="none" xmlns="http://www.w3.org/2000/svg">
<path d="M9.1875 19.0625H7.875V15.7812C7.87448 15.2593 7.66689 14.7588 7.29779 14.3897C6.92869 14.0206 6.42824 13.813 5.90625 13.8125H3.28125C2.75926 13.813 2.25881 14.0206 1.88971 14.3897C1.52061 14.7588 1.31302 15.2593 1.3125 15.7812V19.0625H0V15.7812C0.00104203 14.9113 0.347079 14.0773 0.962207 13.4622C1.57733 12.8471 2.41133 12.501 3.28125 12.5H5.90625C6.77617 12.501 7.61017 12.8471 8.22529 13.4622C8.84042 14.0773 9.18646 14.9113 9.1875 15.7812V19.0625ZM4.59375 5.9375C5.11589 5.9375 5.61665 6.14492 5.98587 6.51413C6.35508 6.88335 6.5625 7.38411 6.5625 7.90625C6.5625 8.42839 6.35508 8.92915 5.98587 9.29837C5.61665 9.66758 5.11589 9.875 4.59375 9.875C4.07161 9.875 3.57085 9.66758 3.20163 9.29837C2.83242 8.92915 2.625 8.42839 2.625 7.90625C2.625 7.38411 2.83242 6.88335 3.20163 6.51413C3.57085 6.14492 4.07161 5.9375 4.59375 5.9375ZM4.59375 4.625C3.72351 4.625 2.88891 4.9707 2.27356 5.58606C1.6582 6.20141 1.3125 7.03601 1.3125 7.90625C1.3125 8.77649 1.6582 9.61109 2.27356 10.2264C2.88891 10.8418 3.72351 11.1875 4.59375 11.1875C5.46399 11.1875 6.29859 10.8418 6.91394 10.2264C7.5293 9.61109 7.875 8.77649 7.875 7.90625C7.875 7.03601 7.5293 6.20141 6.91394 5.58606C6.29859 4.9707 5.46399 4.625 4.59375 4.625ZM17.0625 4.625H13.125V2.65625C13.125 1.93306 13.7137 1.34375 14.4375 1.34375C15.1613 1.34375 15.75 1.93306 15.75 2.65625H17.0625C17.0625 1.20856 15.8852 0.03125 14.4375 0.03125C12.9898 0.03125 11.8125 1.20856 11.8125 2.65625V4.625C11.0887 4.625 10.5 5.21431 10.5 5.9375V9.875C10.5 10.5988 11.0887 11.1875 11.8125 11.1875H17.0625C17.7863 11.1875 18.375 10.5988 18.375 9.875V5.9375C18.375 5.21431 17.7863 4.625 17.0625 4.625ZM17.0625 9.875H11.8125V5.9375H17.0625V9.875Z" fill="white"/>
</svg>
