<svg width="21" height="21" viewBox="0 0 21 21" fill="none" xmlns="http://www.w3.org/2000/svg">
<path d="M10.4167 0C4.66146 0 0 4.66146 0 10.4167C0 16.1719 4.66146 20.8333 10.4167 20.8333C16.1719 20.8333 20.8333 16.1719 20.8333 10.4167C20.8333 4.66146 16.1719 0 10.4167 0ZM2.08333 10.4167C2.08333 5.8125 5.8125 2.08333 10.4167 2.08333C12.3438 2.08333 14.1094 2.74479 15.5208 3.83854L3.83854 15.5208C2.74479 14.1094 2.08333 12.3438 2.08333 10.4167ZM10.4167 18.75C8.48958 18.75 6.72396 18.0885 5.3125 16.9948L16.9948 5.3125C18.0885 6.72396 18.75 8.48958 18.75 10.4167C18.75 15.0208 15.0208 18.75 10.4167 18.75Z" fill="#6B7280"/>
</svg>
