<svg width="14" height="14" viewBox="0 0 14 14" fill="none" xmlns="http://www.w3.org/2000/svg">
<path d="M13.8609 1.37665C13.9502 1.46622 14.0003 1.58755 14.0003 1.71403C14.0003 1.84051 13.9502 1.96183 13.8609 2.0514L12.864 3.0492L10.9525 1.13771L11.9494 0.139915C12.039 0.0503274 12.1605 0 12.2872 0C12.414 0 12.5355 0.0503274 12.6251 0.139915L13.8609 1.37569V1.37665ZM12.1883 3.72396L10.2768 1.81247L3.76534 8.32492C3.71274 8.37751 3.67314 8.44165 3.64969 8.51224L2.88032 10.8194C2.86636 10.8615 2.86438 10.9066 2.8746 10.9497C2.88481 10.9928 2.90681 11.0323 2.93815 11.0636C2.96948 11.0949 3.00891 11.1169 3.05204 11.1271C3.09516 11.1374 3.14027 11.1354 3.18233 11.1214L5.4895 10.3521C5.56 10.3289 5.62414 10.2896 5.67683 10.2374L12.1883 3.72396Z" fill="white"/>
<path fill-rule="evenodd" clip-rule="evenodd" d="M0 12.4248C0 12.8051 0.151041 13.1697 0.419897 13.4386C0.688752 13.7074 1.0534 13.8585 1.43362 13.8585H11.9468C12.327 13.8585 12.6917 13.7074 12.9605 13.4386C13.2294 13.1697 13.3804 12.8051 13.3804 12.4248V6.69037C13.3804 6.56363 13.3301 6.44208 13.2405 6.35246C13.1508 6.26285 13.0293 6.2125 12.9026 6.2125C12.7758 6.2125 12.6543 6.26285 12.5647 6.35246C12.475 6.44208 12.4247 6.56363 12.4247 6.69037V12.4248C12.4247 12.5516 12.3743 12.6731 12.2847 12.7627C12.1951 12.8524 12.0736 12.9027 11.9468 12.9027H1.43362C1.30688 12.9027 1.18533 12.8524 1.09571 12.7627C1.00609 12.6731 0.955745 12.5516 0.955745 12.4248V1.91165C0.955745 1.78491 1.00609 1.66336 1.09571 1.57374C1.18533 1.48412 1.30688 1.43377 1.43362 1.43377H7.64596C7.7727 1.43377 7.89425 1.38343 7.98387 1.29381C8.07349 1.20419 8.12383 1.08264 8.12383 0.9559C8.12383 0.82916 8.07349 0.707611 7.98387 0.617993C7.89425 0.528374 7.7727 0.478027 7.64596 0.478027H1.43362C1.0534 0.478027 0.688752 0.629069 0.419897 0.897924C0.151041 1.16678 0 1.53143 0 1.91165V12.4248Z" fill="white"/>
</svg>
