<svg width="969" height="969" viewBox="0 0 969 969" fill="none" xmlns="http://www.w3.org/2000/svg">
<g clip-path="url(#clip0_2215_29)">
<path d="M535.372 121.125C329.863 115.473 161.499 280.607 161.499 484.5H89.228C71.0592 484.5 62.1767 506.303 75.0967 518.819L187.743 631.869C195.818 639.944 208.334 639.944 216.409 631.869L329.055 518.819C341.572 506.303 332.689 484.5 314.52 484.5H242.249C242.249 327.038 370.642 199.857 528.912 201.875C679.107 203.894 805.48 330.268 807.499 480.463C809.518 638.329 682.337 767.125 524.874 767.125C459.87 767.125 399.712 744.919 352.069 707.37C335.919 694.854 313.309 696.065 298.774 710.6C281.817 727.558 283.028 756.224 302.004 770.759C363.374 819.209 440.49 847.875 524.874 847.875C728.768 847.875 893.902 679.512 888.249 474.003C883 284.644 724.73 126.374 535.372 121.125ZM514.78 323C498.227 323 484.499 336.728 484.499 353.282V501.862C484.499 515.993 492.17 529.317 504.283 536.584L630.253 611.278C644.788 619.757 663.36 614.912 671.839 600.78C680.318 586.245 675.473 567.673 661.342 559.194L545.062 490.153V352.878C545.062 336.728 531.334 323 514.78 323Z" fill="black"/>
</g>
<defs>
<clipPath id="clip0_2215_29">
<rect width="969" height="969" fill="white"/>
</clipPath>
</defs>
</svg>
