<svg width="339" height="69" viewBox="0 0 339 69" fill="none" xmlns="http://www.w3.org/2000/svg">
<circle cx="25" cy="25" r="24.5" fill="white" stroke="#FDCC01"/>
<circle cx="169" cy="25" r="24.5" fill="white" stroke="black"/>
<circle cx="314" cy="25" r="24.5" fill="white" stroke="black"/>
<path d="M19.0909 31.2321V32.2679C19.0909 32.4081 19.0324 32.5295 18.9155 32.632C18.7985 32.7345 18.66 32.7857 18.5 32.7857H17.3182C17.1581 32.7857 17.0196 32.7345 16.9027 32.632C16.7857 32.5295 16.7273 32.4081 16.7273 32.2679V31.2321C16.7273 31.0919 16.7857 30.9705 16.9027 30.868C17.0196 30.7655 17.1581 30.7143 17.3182 30.7143H18.5C18.66 30.7143 18.7985 30.7655 18.9155 30.868C19.0324 30.9705 19.0909 31.0919 19.0909 31.2321ZM19.0909 27.0893V28.125C19.0909 28.2653 19.0324 28.3866 18.9155 28.4891C18.7985 28.5916 18.66 28.6429 18.5 28.6429H17.3182C17.1581 28.6429 17.0196 28.5916 16.9027 28.4891C16.7857 28.3866 16.7273 28.2653 16.7273 28.125V27.0893C16.7273 26.949 16.7857 26.8277 16.9027 26.7252C17.0196 26.6227 17.1581 26.5714 17.3182 26.5714H18.5C18.66 26.5714 18.7985 26.6227 18.9155 26.7252C19.0324 26.8277 19.0909 26.949 19.0909 27.0893ZM23.8182 27.0893V28.125C23.8182 28.2653 23.7597 28.3866 23.6428 28.4891C23.5258 28.5916 23.3873 28.6429 23.2273 28.6429H22.0455C21.8854 28.6429 21.7469 28.5916 21.63 28.4891C21.513 28.3866 21.4545 28.2653 21.4545 28.125V27.0893C21.4545 26.949 21.513 26.8277 21.63 26.7252C21.7469 26.6227 21.8854 26.5714 22.0455 26.5714H23.2273C23.3873 26.5714 23.5258 26.6227 23.6428 26.7252C23.7597 26.8277 23.8182 26.949 23.8182 27.0893ZM19.0909 22.9464V23.9821C19.0909 24.1224 19.0324 24.2438 18.9155 24.3463C18.7985 24.4488 18.66 24.5 18.5 24.5H17.3182C17.1581 24.5 17.0196 24.4488 16.9027 24.3463C16.7857 24.2438 16.7273 24.1224 16.7273 23.9821V22.9464C16.7273 22.8062 16.7857 22.6848 16.9027 22.5823C17.0196 22.4798 17.1581 22.4286 17.3182 22.4286H18.5C18.66 22.4286 18.7985 22.4798 18.9155 22.5823C19.0324 22.6848 19.0909 22.8062 19.0909 22.9464ZM33.2727 31.2321V32.2679C33.2727 32.4081 33.2143 32.5295 33.0973 32.632C32.9803 32.7345 32.8419 32.7857 32.6818 32.7857H31.5C31.34 32.7857 31.2015 32.7345 31.0845 32.632C30.9676 32.5295 30.9091 32.4081 30.9091 32.2679V31.2321C30.9091 31.0919 30.9676 30.9705 31.0845 30.868C31.2015 30.7655 31.34 30.7143 31.5 30.7143H32.6818C32.8419 30.7143 32.9803 30.7655 33.0973 30.868C33.2143 30.9705 33.2727 31.0919 33.2727 31.2321ZM28.5455 27.0893V28.125C28.5455 28.2653 28.487 28.3866 28.37 28.4891C28.2531 28.5916 28.1146 28.6429 27.9545 28.6429H26.7727C26.6127 28.6429 26.4742 28.5916 26.3572 28.4891C26.2403 28.3866 26.1818 28.2653 26.1818 28.125V27.0893C26.1818 26.949 26.2403 26.8277 26.3572 26.7252C26.4742 26.6227 26.6127 26.5714 26.7727 26.5714H27.9545C28.1146 26.5714 28.2531 26.6227 28.37 26.7252C28.487 26.8277 28.5455 26.949 28.5455 27.0893ZM23.8182 22.9464V23.9821C23.8182 24.1224 23.7597 24.2438 23.6428 24.3463C23.5258 24.4488 23.3873 24.5 23.2273 24.5H22.0455C21.8854 24.5 21.7469 24.4488 21.63 24.3463C21.513 24.2438 21.4545 24.1224 21.4545 23.9821V22.9464C21.4545 22.8062 21.513 22.6848 21.63 22.5823C21.7469 22.4798 21.8854 22.4286 22.0455 22.4286H23.2273C23.3873 22.4286 23.5258 22.4798 23.6428 22.5823C23.7597 22.6848 23.8182 22.8062 23.8182 22.9464ZM19.0909 18.8036V19.8393C19.0909 19.9795 19.0324 20.1009 18.9155 20.2034C18.7985 20.3059 18.66 20.3571 18.5 20.3571H17.3182C17.1581 20.3571 17.0196 20.3059 16.9027 20.2034C16.7857 20.1009 16.7273 19.9795 16.7273 19.8393V18.8036C16.7273 18.6633 16.7857 18.5419 16.9027 18.4395C17.0196 18.337 17.1581 18.2857 17.3182 18.2857H18.5C18.66 18.2857 18.7985 18.337 18.9155 18.4395C19.0324 18.5419 19.0909 18.6633 19.0909 18.8036ZM33.2727 27.0893V28.125C33.2727 28.2653 33.2143 28.3866 33.0973 28.4891C32.9803 28.5916 32.8419 28.6429 32.6818 28.6429H31.5C31.34 28.6429 31.2015 28.5916 31.0845 28.4891C30.9676 28.3866 30.9091 28.2653 30.9091 28.125V27.0893C30.9091 26.949 30.9676 26.8277 31.0845 26.7252C31.2015 26.6227 31.34 26.5714 31.5 26.5714H32.6818C32.8419 26.5714 32.9803 26.6227 33.0973 26.7252C33.2143 26.8277 33.2727 26.949 33.2727 27.0893ZM28.5455 22.9464V23.9821C28.5455 24.1224 28.487 24.2438 28.37 24.3463C28.2531 24.4488 28.1146 24.5 27.9545 24.5H26.7727C26.6127 24.5 26.4742 24.4488 26.3572 24.3463C26.2403 24.2438 26.1818 24.1224 26.1818 23.9821V22.9464C26.1818 22.8062 26.2403 22.6848 26.3572 22.5823C26.4742 22.4798 26.6127 22.4286 26.7727 22.4286H27.9545C28.1146 22.4286 28.2531 22.4798 28.37 22.5823C28.487 22.6848 28.5455 22.8062 28.5455 22.9464ZM23.8182 18.8036V19.8393C23.8182 19.9795 23.7597 20.1009 23.6428 20.2034C23.5258 20.3059 23.3873 20.3571 23.2273 20.3571H22.0455C21.8854 20.3571 21.7469 20.3059 21.63 20.2034C21.513 20.1009 21.4545 19.9795 21.4545 19.8393V18.8036C21.4545 18.6633 21.513 18.5419 21.63 18.4395C21.7469 18.337 21.8854 18.2857 22.0455 18.2857H23.2273C23.3873 18.2857 23.5258 18.337 23.6428 18.4395C23.7597 18.5419 23.8182 18.6633 23.8182 18.8036ZM19.0909 14.6607V15.6964C19.0909 15.8367 19.0324 15.9581 18.9155 16.0605C18.7985 16.163 18.66 16.2143 18.5 16.2143H17.3182C17.1581 16.2143 17.0196 16.163 16.9027 16.0605C16.7857 15.9581 16.7273 15.8367 16.7273 15.6964V14.6607C16.7273 14.5205 16.7857 14.3991 16.9027 14.2966C17.0196 14.1941 17.1581 14.1429 17.3182 14.1429H18.5C18.66 14.1429 18.7985 14.1941 18.9155 14.2966C19.0324 14.3991 19.0909 14.5205 19.0909 14.6607ZM33.2727 22.9464V23.9821C33.2727 24.1224 33.2143 24.2438 33.0973 24.3463C32.9803 24.4488 32.8419 24.5 32.6818 24.5H31.5C31.34 24.5 31.2015 24.4488 31.0845 24.3463C30.9676 24.2438 30.9091 24.1224 30.9091 23.9821V22.9464C30.9091 22.8062 30.9676 22.6848 31.0845 22.5823C31.2015 22.4798 31.34 22.4286 31.5 22.4286H32.6818C32.8419 22.4286 32.9803 22.4798 33.0973 22.5823C33.2143 22.6848 33.2727 22.8062 33.2727 22.9464ZM28.5455 18.8036V19.8393C28.5455 19.9795 28.487 20.1009 28.37 20.2034C28.2531 20.3059 28.1146 20.3571 27.9545 20.3571H26.7727C26.6127 20.3571 26.4742 20.3059 26.3572 20.2034C26.2403 20.1009 26.1818 19.9795 26.1818 19.8393V18.8036C26.1818 18.6633 26.2403 18.5419 26.3572 18.4395C26.4742 18.337 26.6127 18.2857 26.7727 18.2857H27.9545C28.1146 18.2857 28.2531 18.337 28.37 18.4395C28.487 18.5419 28.5455 18.6633 28.5455 18.8036ZM23.8182 14.6607V15.6964C23.8182 15.8367 23.7597 15.9581 23.6428 16.0605C23.5258 16.163 23.3873 16.2143 23.2273 16.2143H22.0455C21.8854 16.2143 21.7469 16.163 21.63 16.0605C21.513 15.9581 21.4545 15.8367 21.4545 15.6964V14.6607C21.4545 14.5205 21.513 14.3991 21.63 14.2966C21.7469 14.1941 21.8854 14.1429 22.0455 14.1429H23.2273C23.3873 14.1429 23.5258 14.1941 23.6428 14.2966C23.7597 14.3991 23.8182 14.5205 23.8182 14.6607ZM33.2727 18.8036V19.8393C33.2727 19.9795 33.2143 20.1009 33.0973 20.2034C32.9803 20.3059 32.8419 20.3571 32.6818 20.3571H31.5C31.34 20.3571 31.2015 20.3059 31.0845 20.2034C30.9676 20.1009 30.9091 19.9795 30.9091 19.8393V18.8036C30.9091 18.6633 30.9676 18.5419 31.0845 18.4395C31.2015 18.337 31.34 18.2857 31.5 18.2857H32.6818C32.8419 18.2857 32.9803 18.337 33.0973 18.4395C33.2143 18.5419 33.2727 18.6633 33.2727 18.8036ZM28.5455 14.6607V15.6964C28.5455 15.8367 28.487 15.9581 28.37 16.0605C28.2531 16.163 28.1146 16.2143 27.9545 16.2143H26.7727C26.6127 16.2143 26.4742 16.163 26.3572 16.0605C26.2403 15.9581 26.1818 15.8367 26.1818 15.6964V14.6607C26.1818 14.5205 26.2403 14.3991 26.3572 14.2966C26.4742 14.1941 26.6127 14.1429 26.7727 14.1429H27.9545C28.1146 14.1429 28.2531 14.1941 28.37 14.2966C28.487 14.3991 28.5455 14.5205 28.5455 14.6607ZM33.2727 14.6607V15.6964C33.2727 15.8367 33.2143 15.9581 33.0973 16.0605C32.9803 16.163 32.8419 16.2143 32.6818 16.2143H31.5C31.34 16.2143 31.2015 16.163 31.0845 16.0605C30.9676 15.9581 30.9091 15.8367 30.9091 15.6964V14.6607C30.9091 14.5205 30.9676 14.3991 31.0845 14.2966C31.2015 14.1941 31.34 14.1429 31.5 14.1429H32.6818C32.8419 14.1429 32.9803 14.1941 33.0973 14.2966C33.2143 14.3991 33.2727 14.5205 33.2727 14.6607ZM28.5455 36.9286H35.6364V12.0714H14.3636V36.9286H21.4545V33.3036C21.4545 33.1633 21.513 33.0419 21.63 32.9395C21.7469 32.837 21.8854 32.7857 22.0455 32.7857H27.9545C28.1146 32.7857 28.2531 32.837 28.37 32.9395C28.487 33.0419 28.5455 33.1633 28.5455 33.3036V36.9286ZM38 11.0357V37.9643C38 38.2448 37.883 38.4875 37.6491 38.6925C37.4152 38.8975 37.1383 39 36.8182 39H13.1818C12.8617 39 12.5848 38.8975 12.3509 38.6925C12.117 38.4875 12 38.2448 12 37.9643V11.0357C12 10.7552 12.117 10.5125 12.3509 10.3075C12.5848 10.1025 12.8617 10 13.1818 10H36.8182C37.1383 10 37.4152 10.1025 37.6491 10.3075C37.883 10.5125 38 10.7552 38 11.0357Z" fill="#FDCC01"/>
<line x1="49" y1="24.5" x2="144" y2="24.5" stroke="#FDCC01"/>
<line x1="194" y1="24.5" x2="289" y2="24.5" stroke="black"/>
<path d="M163.957 25C162.326 25.0521 160.991 25.7188 159.954 27H157.93C157.105 27 156.41 26.7891 155.846 26.3672C155.282 25.9453 155 25.3281 155 24.5156C155 20.8385 155.624 19 156.873 19C156.933 19 157.152 19.1094 157.53 19.3281C157.908 19.5469 158.398 19.7682 159.003 19.9922C159.607 20.2161 160.206 20.3281 160.8 20.3281C161.475 20.3281 162.144 20.2083 162.809 19.9688C162.759 20.3542 162.733 20.6979 162.733 21C162.733 22.4479 163.141 23.7813 163.957 25ZM180.133 34.9531C180.133 36.2031 179.766 37.1901 179.031 37.9141C178.296 38.638 177.319 39 176.101 39H162.899C161.681 39 160.704 38.638 159.969 37.9141C159.234 37.1901 158.867 36.2031 158.867 34.9531C158.867 34.401 158.884 33.862 158.92 33.3359C158.955 32.8099 159.025 32.2422 159.131 31.6328C159.237 31.0234 159.37 30.4583 159.531 29.9375C159.692 29.4167 159.909 28.9089 160.181 28.4141C160.453 27.9193 160.765 27.4974 161.117 27.1484C161.47 26.7995 161.9 26.5208 162.409 26.3125C162.917 26.1042 163.478 26 164.093 26C164.193 26 164.41 26.112 164.742 26.3359C165.074 26.5599 165.442 26.8099 165.845 27.0859C166.248 27.362 166.786 27.612 167.461 27.8359C168.136 28.0599 168.815 28.1719 169.5 28.1719C170.185 28.1719 170.864 28.0599 171.539 27.8359C172.214 27.612 172.752 27.362 173.155 27.0859C173.558 26.8099 173.926 26.5599 174.258 26.3359C174.59 26.112 174.807 26 174.907 26C175.522 26 176.083 26.1042 176.591 26.3125C177.1 26.5208 177.53 26.7995 177.883 27.1484C178.235 27.4974 178.547 27.9193 178.819 28.4141C179.091 28.9089 179.308 29.4167 179.469 29.9375C179.63 30.4583 179.763 31.0234 179.869 31.6328C179.975 32.2422 180.045 32.8099 180.08 33.3359C180.116 33.862 180.133 34.401 180.133 34.9531ZM164.667 15C164.667 16.1042 164.289 17.0469 163.534 17.8281C162.779 18.6094 161.867 19 160.8 19C159.733 19 158.821 18.6094 158.066 17.8281C157.311 17.0469 156.933 16.1042 156.933 15C156.933 13.8958 157.311 12.9531 158.066 12.1719C158.821 11.3906 159.733 11 160.8 11C161.867 11 162.779 11.3906 163.534 12.1719C164.289 12.9531 164.667 13.8958 164.667 15ZM175.3 21C175.3 22.6563 174.734 24.0703 173.601 25.2422C172.468 26.4141 171.101 27 169.5 27C167.899 27 166.532 26.4141 165.399 25.2422C164.266 24.0703 163.7 22.6563 163.7 21C163.7 19.3438 164.266 17.9297 165.399 16.7578C166.532 15.5859 167.899 15 169.5 15C171.101 15 172.468 15.5859 173.601 16.7578C174.734 17.9297 175.3 19.3438 175.3 21ZM184 24.5156C184 25.3281 183.718 25.9453 183.154 26.3672C182.59 26.7891 181.895 27 181.07 27H179.046C178.009 25.7188 176.674 25.0521 175.043 25C175.859 23.7813 176.267 22.4479 176.267 21C176.267 20.6979 176.241 20.3542 176.191 19.9688C176.856 20.2083 177.525 20.3281 178.2 20.3281C178.794 20.3281 179.393 20.2161 179.997 19.9922C180.602 19.7682 181.092 19.5469 181.47 19.3281C181.848 19.1094 182.067 19 182.127 19C183.376 19 184 20.8385 184 24.5156ZM182.067 15C182.067 16.1042 181.689 17.0469 180.934 17.8281C180.179 18.6094 179.267 19 178.2 19C177.133 19 176.221 18.6094 175.466 17.8281C174.711 17.0469 174.333 16.1042 174.333 15C174.333 13.8958 174.711 12.9531 175.466 12.1719C176.221 11.3906 177.133 11 178.2 11C179.267 11 180.179 11.3906 180.934 12.1719C181.689 12.9531 182.067 13.8958 182.067 15Z" fill="black"/>
<path d="M313.5 23.4444C314.913 23.4444 316.294 23.0795 317.468 22.3958C318.643 21.7121 319.559 20.7403 320.099 19.6034C320.64 18.4664 320.781 17.2153 320.506 16.0083C320.23 14.8013 319.55 13.6926 318.551 12.8224C317.552 11.9523 316.279 11.3596 314.894 11.1196C313.508 10.8795 312.072 11.0027 310.767 11.4736C309.461 11.9446 308.346 12.7421 307.561 13.7653C306.776 14.7886 306.357 15.9916 306.357 17.2222C306.357 18.8725 307.11 20.4551 308.449 21.622C309.789 22.7889 311.606 23.4444 313.5 23.4444ZM324.214 39C324.688 39 325.142 38.8361 325.477 38.5444C325.812 38.2527 326 37.857 326 37.4444C326 34.5565 324.683 31.7869 322.339 29.7448C319.995 27.7028 316.815 26.5556 313.5 26.5556C310.185 26.5556 307.005 27.7028 304.661 29.7448C302.317 31.7869 301 34.5565 301 37.4444C301 37.857 301.188 38.2527 301.523 38.5444C301.858 38.8361 302.312 39 302.786 39H324.214Z" fill="black"/>
<path d="M4.615 57.5H6.265V68H4.615V57.5ZM7.50074 57.5H9.57074L11.1757 63.785H11.2057V57.5H12.6757V68H10.9807L9.00074 60.335H8.97074V68H7.50074V57.5ZM18.6895 68.15C17.8795 68.15 17.2595 67.92 16.8295 67.46C16.3995 67 16.1845 66.35 16.1845 65.51V59.99C16.1845 59.15 16.3995 58.5 16.8295 58.04C17.2595 57.58 17.8795 57.35 18.6895 57.35C19.4995 57.35 20.1195 57.58 20.5495 58.04C20.9795 58.5 21.1945 59.15 21.1945 59.99V65.51C21.1945 66.35 20.9795 67 20.5495 67.46C20.1195 67.92 19.4995 68.15 18.6895 68.15ZM18.6895 66.65C19.2595 66.65 19.5445 66.305 19.5445 65.615V59.885C19.5445 59.195 19.2595 58.85 18.6895 58.85C18.1195 58.85 17.8345 59.195 17.8345 59.885V65.615C17.8345 66.305 18.1195 66.65 18.6895 66.65ZM22.3103 57.5H26.6753V59H23.9603V61.925H26.0903V63.425H23.9603V68H22.3103V57.5ZM27.4666 57.5H31.8316V59H29.1166V61.925H31.2466V63.425H29.1166V68H27.4666V57.5ZM32.6228 57.5H34.2728V68H32.6228V57.5ZM37.8336 68.15C37.0436 68.15 36.4386 67.925 36.0186 67.475C35.6086 67.025 35.4036 66.39 35.4036 65.57V59.93C35.4036 59.11 35.6086 58.475 36.0186 58.025C36.4386 57.575 37.0436 57.35 37.8336 57.35C38.6236 57.35 39.2236 57.575 39.6336 58.025C40.0536 58.475 40.2636 59.11 40.2636 59.93V61.04H38.7036V59.825C38.7036 59.175 38.4286 58.85 37.8786 58.85C37.3286 58.85 37.0536 59.175 37.0536 59.825V65.69C37.0536 66.33 37.3286 66.65 37.8786 66.65C38.4286 66.65 38.7036 66.33 38.7036 65.69V64.085H40.2636V65.57C40.2636 66.39 40.0536 67.025 39.6336 67.475C39.2236 67.925 38.6236 68.15 37.8336 68.15ZM41.2507 57.5H45.7507V59H42.9007V61.775H45.1657V63.275H42.9007V66.5H45.7507V68H41.2507V57.5Z" fill="#040000"/>
<path d="M291.615 56.5H293.97L295.02 64.015H295.05L296.1 56.5H298.455V67H296.895V59.05H296.865L295.665 67H294.285L293.085 59.05H293.055V67H291.615V56.5ZM300.961 56.5H303.196L304.906 67H303.256L302.956 64.915V64.945H301.081L300.781 67H299.251L300.961 56.5ZM302.761 63.52L302.026 58.33H301.996L301.276 63.52H302.761ZM305.707 56.5H307.777L309.382 62.785H309.412V56.5H310.882V67H309.187L307.207 59.335H307.177V67H305.707V56.5ZM313.383 56.5H315.618L317.328 67H315.678L315.378 64.915V64.945H313.503L313.203 67H311.673L313.383 56.5ZM315.183 63.52L314.448 58.33H314.418L313.698 63.52H315.183ZM320.439 67.15C319.639 67.15 319.029 66.925 318.609 66.475C318.189 66.015 317.979 65.36 317.979 64.51V58.99C317.979 58.14 318.189 57.49 318.609 57.04C319.029 56.58 319.639 56.35 320.439 56.35C321.239 56.35 321.849 56.58 322.269 57.04C322.689 57.49 322.899 58.14 322.899 58.99V59.89H321.339V58.885C321.339 58.195 321.054 57.85 320.484 57.85C319.914 57.85 319.629 58.195 319.629 58.885V64.63C319.629 65.31 319.914 65.65 320.484 65.65C321.054 65.65 321.339 65.31 321.339 64.63V62.575H320.514V61.075H322.899V64.51C322.899 65.36 322.689 66.015 322.269 66.475C321.849 66.925 321.239 67.15 320.439 67.15ZM323.959 56.5H328.459V58H325.609V60.775H327.874V62.275H325.609V65.5H328.459V67H323.959V56.5ZM329.408 56.5H331.853C332.703 56.5 333.323 56.7 333.713 57.1C334.103 57.49 334.298 58.095 334.298 58.915V59.56C334.298 60.65 333.938 61.34 333.218 61.63V61.66C333.618 61.78 333.898 62.025 334.058 62.395C334.228 62.765 334.313 63.26 334.313 63.88V65.725C334.313 66.025 334.323 66.27 334.343 66.46C334.363 66.64 334.413 66.82 334.493 67H332.813C332.753 66.83 332.713 66.67 332.693 66.52C332.673 66.37 332.663 66.1 332.663 65.71V63.79C332.663 63.31 332.583 62.975 332.423 62.785C332.273 62.595 332.008 62.5 331.628 62.5H331.058V67H329.408V56.5ZM331.658 61C331.988 61 332.233 60.915 332.393 60.745C332.563 60.575 332.648 60.29 332.648 59.89V59.08C332.648 58.7 332.578 58.425 332.438 58.255C332.308 58.085 332.098 58 331.808 58H331.058V61H331.658Z" fill="#040000"/>
<path d="M153.615 57.5H156.105C156.955 57.5 157.575 57.7 157.965 58.1C158.355 58.49 158.55 59.095 158.55 59.915V60.335C158.55 60.875 158.46 61.315 158.28 61.655C158.11 61.995 157.845 62.24 157.485 62.39V62.42C158.305 62.7 158.715 63.43 158.715 64.61V65.51C158.715 66.32 158.5 66.94 158.07 67.37C157.65 67.79 157.03 68 156.21 68H153.615V57.5ZM155.91 61.775C156.24 61.775 156.485 61.69 156.645 61.52C156.815 61.35 156.9 61.065 156.9 60.665V60.08C156.9 59.7 156.83 59.425 156.69 59.255C156.56 59.085 156.35 59 156.06 59H155.265V61.775H155.91ZM156.21 66.5C156.5 66.5 156.715 66.425 156.855 66.275C156.995 66.115 157.065 65.845 157.065 65.465V64.55C157.065 64.07 156.98 63.74 156.81 63.56C156.65 63.37 156.38 63.275 156 63.275H155.265V66.5H156.21ZM162.064 68.15C161.254 68.15 160.634 67.92 160.204 67.46C159.774 67 159.559 66.35 159.559 65.51V59.99C159.559 59.15 159.774 58.5 160.204 58.04C160.634 57.58 161.254 57.35 162.064 57.35C162.874 57.35 163.494 57.58 163.924 58.04C164.354 58.5 164.569 59.15 164.569 59.99V65.51C164.569 66.35 164.354 67 163.924 67.46C163.494 67.92 162.874 68.15 162.064 68.15ZM162.064 66.65C162.634 66.65 162.919 66.305 162.919 65.615V59.885C162.919 59.195 162.634 58.85 162.064 58.85C161.494 58.85 161.209 59.195 161.209 59.885V65.615C161.209 66.305 161.494 66.65 162.064 66.65ZM166.931 57.5H169.166L170.876 68H169.226L168.926 65.915V65.945H167.051L166.751 68H165.221L166.931 57.5ZM168.731 64.52L167.996 59.33H167.966L167.246 64.52H168.731ZM171.677 57.5H174.122C174.972 57.5 175.592 57.7 175.982 58.1C176.372 58.49 176.567 59.095 176.567 59.915V60.56C176.567 61.65 176.207 62.34 175.487 62.63V62.66C175.887 62.78 176.167 63.025 176.327 63.395C176.497 63.765 176.582 64.26 176.582 64.88V66.725C176.582 67.025 176.592 67.27 176.612 67.46C176.632 67.64 176.682 67.82 176.762 68H175.082C175.022 67.83 174.982 67.67 174.962 67.52C174.942 67.37 174.932 67.1 174.932 66.71V64.79C174.932 64.31 174.852 63.975 174.692 63.785C174.542 63.595 174.277 63.5 173.897 63.5H173.327V68H171.677V57.5ZM173.927 62C174.257 62 174.502 61.915 174.662 61.745C174.832 61.575 174.917 61.29 174.917 60.89V60.08C174.917 59.7 174.847 59.425 174.707 59.255C174.577 59.085 174.367 59 174.077 59H173.327V62H173.927ZM177.726 57.5H180.246C181.066 57.5 181.681 57.72 182.091 58.16C182.501 58.6 182.706 59.245 182.706 60.095V65.405C182.706 66.255 182.501 66.9 182.091 67.34C181.681 67.78 181.066 68 180.246 68H177.726V57.5ZM180.216 66.5C180.486 66.5 180.691 66.42 180.831 66.26C180.981 66.1 181.056 65.84 181.056 65.48V60.02C181.056 59.66 180.981 59.4 180.831 59.24C180.691 59.08 180.486 59 180.216 59H179.376V66.5H180.216Z" fill="#040000"/>
</svg>
