<?xml version="1.0" encoding="iso-8859-1"?>
<!-- Uploaded to: SVG Repo, www.svgrepo.com, Generator: SVG Repo Mixer Tools -->
<svg fill="#000000" height="800px" width="800px" version="1.1" id="Capa_1" xmlns="http://www.w3.org/2000/svg" xmlns:xlink="http://www.w3.org/1999/xlink" 
	 viewBox="0 0 488.2 488.2" xml:space="preserve">
<g>
	<g>
		<path d="M480.7,327.7c-25.5-21-53-34.9-58.6-37.6c-0.6-0.3-1-0.9-1-1.7v-39.7c5-3.3,8.3-9,8.3-15.5V192
			c0-20.5-16.6-37.1-37.1-37.1h-4.4h-4.4c-20.5,0-37.1,16.6-37.1,37.1v41.2c0,6.5,3.3,12.1,8.3,15.5v39.7c0,0.7-0.4,1.3-1,1.7
			c-2.9,1.4-11.8,5.9-23.3,12.9c-21.9-15-41.1-24.7-46-27.1c-0.7-0.4-1.2-1.1-1.2-1.9v-46.8c5.9-3.9,9.7-10.6,9.7-18.2v-48.4
			c0-24.1-19.5-43.6-43.6-43.6h-5.4h-5.2c-24.1,0-43.6,19.5-43.6,43.6V209c0,7.6,3.9,14.3,9.7,18.2v46.7c0,0.8-0.5,1.6-1.2,1.9
			c-4.9,2.4-24.1,12.1-46,27.1c-11.5-6.9-20.4-11.4-23.3-12.9c-0.6-0.3-1-0.9-1-1.7v-39.7c5-3.3,8.3-9,8.3-15.5v-41.2
			c0-20.5-16.6-37.1-37.1-37.1h-4.4h-4.4c-20.5,0-37.1,16.6-37.1,37.1v41.2c0,6.5,3.3,12.1,8.3,15.5v39.7c0,0.7-0.4,1.3-1,1.7
			c-5.6,2.7-33.1,16.6-58.6,37.6C2.7,331.4,0,337.1,0,343v28.2h100.2h26.2h74h28.3l10.1-46.3c-20.4-28.5,1.5-29.8,5.3-29.9l0,0l0,0
			c3.8,0,25.8,1.4,5.3,29.9l10.1,46.3h28.3h74H388h100.2V343C488,337.2,485.3,331.5,480.7,327.7z"/>
	</g>
</g>
</svg>