<svg width="82" height="94" viewBox="0 0 82 94" fill="none" xmlns="http://www.w3.org/2000/svg">
<path d="M6.625 6.25C4.9674 6.25 3.37768 6.90848 2.20558 8.08058C1.03348 9.25268 0.375 10.8424 0.375 12.5V18.75C0.375 20.4076 1.03348 21.9973 2.20558 23.1694C3.37768 24.3415 4.9674 25 6.625 25H9.75V81.25C9.75 84.5652 11.067 87.7446 13.4112 90.0888C15.7554 92.433 18.9348 93.75 22.25 93.75H59.75C63.0652 93.75 66.2446 92.433 68.5888 90.0888C70.933 87.7446 72.25 84.5652 72.25 81.25V25H75.375C77.0326 25 78.6223 24.3415 79.7944 23.1694C80.9665 21.9973 81.625 20.4076 81.625 18.75V12.5C81.625 10.8424 80.9665 9.25268 79.7944 8.08058C78.6223 6.90848 77.0326 6.25 75.375 6.25H53.5C53.5 4.5924 52.8415 3.00269 51.6694 1.83058C50.4973 0.65848 48.9076 0 47.25 0L34.75 0C33.0924 0 31.5027 0.65848 30.3306 1.83058C29.1585 3.00269 28.5 4.5924 28.5 6.25H6.625ZM25.375 31.25C26.2038 31.25 26.9987 31.5792 27.5847 32.1653C28.1708 32.7513 28.5 33.5462 28.5 34.375V78.125C28.5 78.9538 28.1708 79.7487 27.5847 80.3347C26.9987 80.9208 26.2038 81.25 25.375 81.25C24.5462 81.25 23.7513 80.9208 23.1653 80.3347C22.5792 79.7487 22.25 78.9538 22.25 78.125V34.375C22.25 33.5462 22.5792 32.7513 23.1653 32.1653C23.7513 31.5792 24.5462 31.25 25.375 31.25ZM41 31.25C41.8288 31.25 42.6237 31.5792 43.2097 32.1653C43.7958 32.7513 44.125 33.5462 44.125 34.375V78.125C44.125 78.9538 43.7958 79.7487 43.2097 80.3347C42.6237 80.9208 41.8288 81.25 41 81.25C40.1712 81.25 39.3763 80.9208 38.7903 80.3347C38.2042 79.7487 37.875 78.9538 37.875 78.125V34.375C37.875 33.5462 38.2042 32.7513 38.7903 32.1653C39.3763 31.5792 40.1712 31.25 41 31.25ZM59.75 34.375V78.125C59.75 78.9538 59.4208 79.7487 58.8347 80.3347C58.2487 80.9208 57.4538 81.25 56.625 81.25C55.7962 81.25 55.0013 80.9208 54.4153 80.3347C53.8292 79.7487 53.5 78.9538 53.5 78.125V34.375C53.5 33.5462 53.8292 32.7513 54.4153 32.1653C55.0013 31.5792 55.7962 31.25 56.625 31.25C57.4538 31.25 58.2487 31.5792 58.8347 32.1653C59.4208 32.7513 59.75 33.5462 59.75 34.375Z" fill="#FB2B2B"/>
</svg>
