<svg width="19" height="20" viewBox="0 0 19 20" fill="none" xmlns="http://www.w3.org/2000/svg">
<path d="M17.0625 4.59375V2.625C17.0625 1.17731 15.8852 0 14.4375 0C12.9898 0 11.8125 1.17731 11.8125 2.625V4.59375C11.0887 4.59375 10.5 5.18306 10.5 5.90625V9.84375C10.5 10.5676 11.0887 11.1562 11.8125 11.1562H17.0625C17.7863 11.1562 18.375 10.5676 18.375 9.84375V5.90625C18.375 5.18306 17.7863 4.59375 17.0625 4.59375ZM13.125 2.625C13.125 1.90181 13.7137 1.3125 14.4375 1.3125C15.1613 1.3125 15.75 1.90181 15.75 2.625V4.59375H13.125V2.625ZM11.8125 9.84375V5.90625H17.0625V9.84375H11.8125ZM9.1875 19.0312H7.875V15.75C7.87448 15.228 7.66689 14.7276 7.29779 14.3585C6.92869 13.9894 6.42824 13.7818 5.90625 13.7812H3.28125C2.75926 13.7818 2.25881 13.9894 1.88971 14.3585C1.52061 14.7276 1.31302 15.228 1.3125 15.75V19.0312H0V15.75C0.00104203 14.8801 0.347079 14.0461 0.962207 13.431C1.57733 12.8158 2.41133 12.4698 3.28125 12.4688H5.90625C6.77617 12.4698 7.61017 12.8158 8.22529 13.431C8.84042 14.0461 9.18646 14.8801 9.1875 15.75V19.0312ZM4.59375 5.90625C5.11589 5.90625 5.61665 6.11367 5.98587 6.48288C6.35508 6.8521 6.5625 7.35286 6.5625 7.875C6.5625 8.39714 6.35508 8.8979 5.98587 9.26712C5.61665 9.63633 5.11589 9.84375 4.59375 9.84375C4.07161 9.84375 3.57085 9.63633 3.20163 9.26712C2.83242 8.8979 2.625 8.39714 2.625 7.875C2.625 7.35286 2.83242 6.8521 3.20163 6.48288C3.57085 6.11367 4.07161 5.90625 4.59375 5.90625ZM4.59375 4.59375C3.72351 4.59375 2.88891 4.93945 2.27356 5.55481C1.6582 6.17016 1.3125 7.00476 1.3125 7.875C1.3125 8.74524 1.6582 9.57984 2.27356 10.1952C2.88891 10.8105 3.72351 11.1562 4.59375 11.1562C5.46399 11.1562 6.29859 10.8105 6.91394 10.1952C7.5293 9.57984 7.875 8.74524 7.875 7.875C7.875 7.00476 7.5293 6.17016 6.91394 5.55481C6.29859 4.93945 5.46399 4.59375 4.59375 4.59375Z" fill="white"/>
</svg>
